<svg xmlns="http://www.w3.org/2000/svg" viewBox="0 0 32 32" width="32" height="32"><defs><linearGradient id="straw_g" x1="0%" y1="0%" x2="0%" y2="100%"><stop offset="0%" stop-color="#FFC4D8"/><stop offset="100%" stop-color="#FF6E96"/></linearGradient><linearGradient id="straw_l" x1="0%" y1="0%" x2="0%" y2="100%"><stop offset="0%" stop-color="#FFD8E0"/><stop offset="100%" stop-color="#FF8FAA"/></linearGradient></defs><path d="M 16 9 C 9 9, 5 15, 6 21 C 8 27, 13 29, 16 29 C 19 29, 24 27, 26 21 C 27 15, 23 9, 16 9 Z" fill="url(#straw_g)" stroke="#C84A6B" stroke-width="0.7"/><ellipse cx="16" cy="9" rx="3.5" ry="1.5" fill="#FF6E96"/><path d="M 13 8 L 14 5 L 15 8 Z M 16 8 L 16 4 L 17 8 Z M 19 8 L 18 5 L 17 8 Z" fill="#FF8FAA" stroke="#C84A6B" stroke-width="0.3"/><ellipse cx="11" cy="15" rx="0.5" ry="1.2" fill="#FFE68A" transform="rotate(-15 11 15)"/><ellipse cx="21" cy="15" rx="0.5" ry="1.2" fill="#FFE68A" transform="rotate(15 21 15)"/><ellipse cx="13" cy="20" rx="0.5" ry="1.2" fill="#FFE68A"/><ellipse cx="19" cy="20" rx="0.5" ry="1.2" fill="#FFE68A"/><ellipse cx="16" cy="24" rx="0.5" ry="1.2" fill="#FFE68A"/><ellipse cx="13" cy="13" rx="1.3" ry="2.2" fill="#FFFFFF" opacity="0.65"/><g transform="translate(28.3 5)"><g><animateTransform attributeName="transform" type="rotate" values="0 0 -1.54; 10 0 -1.54; 0 0 -1.54; -10 0 -1.54; 0 0 -1.54" dur="0.55s" begin="0s" repeatCount="indefinite" additive="sum"/><path d="M 0 -1.12 C -1.68 -1.12, -2.10 0.28, -1.54 1.26 C -0.98 2.17, -0.42 2.45, 0 2.45 C 0.42 2.45, 0.98 2.17, 1.54 1.26 C 2.10 0.28, 1.68 -1.12, 0 -1.12 Z" fill="#FF6E96" stroke="#C84A6B" stroke-width="0.28"/><path d="M -0.91 -1.33 L -0.28 -2.10 L -0.07 -1.33 Z M 0.91 -1.33 L 0.28 -2.10 L 0.07 -1.33 Z" fill="#FFC4D8" stroke="#C84A6B" stroke-width="0.17"/><ellipse cx="-0.70" cy="0.14" rx="0.49" ry="0.70" fill="#FFC4D8" opacity="0.7"/><circle cx="0.63" cy="0.42" r="0.22" fill="#FFE68A"/><circle cx="-0.21" cy="1.33" r="0.22" fill="#FFE68A"/><circle cx="0.70" cy="1.40" r="0.20" fill="#FFE68A"/></g></g><g transform="translate(3.5 4.5)"><g><animateTransform attributeName="transform" type="translate" values="0 0; 0 1.26; 0 2.52; 0 3.78" dur="1.1s" begin="0.35s" repeatCount="indefinite" additive="sum"/><animate attributeName="opacity" values="1;0.9;0.55;0" dur="1.1s" begin="0.35s" repeatCount="indefinite"/><path d="M 0 -1.12 C 0.63 -0.21, 0.91 0.35, 0.91 0.70 C 0.91 1.33, 0.49 1.68, 0 1.68 C -0.49 1.68, -0.91 1.33, -0.91 0.70 C -0.91 0.35, -0.63 -0.21, 0 -1.12 Z" fill="#FFFFFF" stroke="#C84A6B" stroke-width="0.21" opacity="0.95"/><ellipse cx="-0.28" cy="0.63" rx="0.24" ry="0.39" fill="#FFC4D8" opacity="0.6"/></g></g></svg>