<svg xmlns="http://www.w3.org/2000/svg" viewBox="0 0 32 32" width="32" height="32"><defs><linearGradient id="bfly_pt" x1="0%" y1="0%" x2="0%" y2="100%"><stop offset="0%" stop-color="#FFE8F4"/><stop offset="100%" stop-color="#FFB8D5"/></linearGradient></defs><path d="M5,4 L5,22 L9.5,18 L12,24 L15,23 L12.5,17 L18,17 Z" fill="url(#bfly_pt)" stroke="#A04A6E" stroke-width="0.6" stroke-linejoin="round"/><ellipse cx="6.5" cy="6" rx="0.6" ry="1.8" fill="#FFFFFF" opacity="0.7"/><g transform="translate(22 9)"><g><animateTransform attributeName="transform" type="scale" values="1 1; 0.5 1; 1 1" dur="0.45s" begin="0s" repeatCount="indefinite" additive="sum"/><line x1="0" y1="-1.42" x2="0" y2="1.90" stroke="#5A3A4A" stroke-width="0.43"/><ellipse cx="-1.90" cy="-0.76" rx="2.09" ry="1.61" fill="#FFB8D5" stroke="#A04A6E" stroke-width="0.33"/><ellipse cx="1.90" cy="-0.76" rx="2.09" ry="1.61" fill="#FFB8D5" stroke="#A04A6E" stroke-width="0.33"/><ellipse cx="-1.52" cy="1.33" rx="1.42" ry="0.95" fill="#FFB8D5" stroke="#A04A6E" stroke-width="0.33"/><ellipse cx="1.52" cy="1.33" rx="1.42" ry="0.95" fill="#FFB8D5" stroke="#A04A6E" stroke-width="0.33"/><ellipse cx="-1.90" cy="-0.76" rx="0.85" ry="0.66" fill="#FF5BAA"/><ellipse cx="1.90" cy="-0.76" rx="0.85" ry="0.66" fill="#FF5BAA"/><circle cx="0" cy="-1.61" r="0.38" fill="#5A3A4A"/></g></g><g transform="translate(25 22)"><g><animateTransform attributeName="transform" type="scale" values="1 1; 0.5 1; 1 1" dur="0.45s" begin="0.2s" repeatCount="indefinite" additive="sum"/><line x1="0" y1="-1.27" x2="0" y2="1.70" stroke="#5A3A4A" stroke-width="0.38"/><ellipse cx="-1.70" cy="-0.68" rx="1.87" ry="1.44" fill="#FFB8D5" stroke="#A04A6E" stroke-width="0.30"/><ellipse cx="1.70" cy="-0.68" rx="1.87" ry="1.44" fill="#FFB8D5" stroke="#A04A6E" stroke-width="0.30"/><ellipse cx="-1.36" cy="1.19" rx="1.27" ry="0.85" fill="#FFB8D5" stroke="#A04A6E" stroke-width="0.30"/><ellipse cx="1.36" cy="1.19" rx="1.27" ry="0.85" fill="#FFB8D5" stroke="#A04A6E" stroke-width="0.30"/><ellipse cx="-1.70" cy="-0.68" rx="0.77" ry="0.59" fill="#FF5BAA"/><ellipse cx="1.70" cy="-0.68" rx="0.77" ry="0.59" fill="#FF5BAA"/><circle cx="0" cy="-1.44" r="0.34" fill="#5A3A4A"/></g></g></svg>