<svg xmlns="http://www.w3.org/2000/svg" viewBox="0 0 32 32" width="32" height="32"><defs><linearGradient id="dot_pt" x1="0%" y1="0%" x2="0%" y2="100%"><stop offset="0%" stop-color="#FFD8EC"/><stop offset="55%" stop-color="#FF7DB8"/><stop offset="100%" stop-color="#C8408F"/></linearGradient><radialGradient id="dot_chr" cx="30%" cy="30%" r="50%"><stop offset="0%" stop-color="#FFFFFF"/><stop offset="55%" stop-color="#E8E2EC"/><stop offset="100%" stop-color="#7A4A6A"/></radialGradient></defs><path d="M5,4 L5,22 L9.5,18 L12,24 L15,23 L12.5,17 L18,17 Z" fill="url(#dot_pt)" stroke="#5A2A4A" stroke-width="0.7" stroke-linejoin="round"/><ellipse cx="7.8" cy="7" rx="0.8" ry="2.2" fill="#FFFFFF" opacity="0.6"/><g transform="translate(22 5)"><g><animate attributeName="opacity" values="1;0.5;1" dur="0.9s" begin="0s" repeatCount="indefinite"/><animateTransform attributeName="transform" type="scale" values="1 1; 1.3 1.3; 1 1" dur="0.9s" begin="0s" repeatCount="indefinite" additive="sum"/><rect x="-0.40" y="-2.20" width="0.80" height="4.40" fill="#FFFFFF" stroke="#5A2A4A" stroke-width="0.30"/><rect x="-2.20" y="-0.40" width="4.40" height="0.80" fill="#FFFFFF" stroke="#5A2A4A" stroke-width="0.30"/></g></g><g transform="translate(27 13)"><g><animate attributeName="opacity" values="1;0.5;1" dur="0.9s" begin="0.15s" repeatCount="indefinite"/><animateTransform attributeName="transform" type="scale" values="1 1; 1.3 1.3; 1 1" dur="0.9s" begin="0.15s" repeatCount="indefinite" additive="sum"/><rect x="-0.36" y="-1.98" width="0.72" height="3.96" fill="#FFFFFF" stroke="#5A2A4A" stroke-width="0.27"/><rect x="-1.98" y="-0.36" width="3.96" height="0.72" fill="#FFFFFF" stroke="#5A2A4A" stroke-width="0.27"/></g></g><g transform="translate(21 21)"><g><animate attributeName="opacity" values="1;0.5;1" dur="0.9s" begin="0.3s" repeatCount="indefinite"/><animateTransform attributeName="transform" type="scale" values="1 1; 1.3 1.3; 1 1" dur="0.9s" begin="0.3s" repeatCount="indefinite" additive="sum"/><rect x="-0.34" y="-1.87" width="0.68" height="3.74" fill="#FFFFFF" stroke="#5A2A4A" stroke-width="0.26"/><rect x="-1.87" y="-0.34" width="3.74" height="0.68" fill="#FFFFFF" stroke="#5A2A4A" stroke-width="0.26"/></g></g><g transform="translate(25.5 26.5)"><g><animateTransform attributeName="transform" type="scale" values="1 1; 1.15 1.15; 1 1" dur="0.7s" begin="0.1s" repeatCount="indefinite" additive="sum"/><path d="M 0 -1.08 C -0.99 -2.70, -2.88 -2.16, -2.88 -0.45 C -2.88 1.26, 0 3.06, 0 3.06 C 0 3.06, 2.88 1.26, 2.88 -0.45 C 2.88 -2.16, 0.99 -2.70, 0 -1.08 Z" fill="url(#dot_chr)" stroke="#5A2A4A" stroke-width="0.45"/><path d="M 0 -0.32 C -0.54 -1.22, -1.58 -0.92, -1.58 0.02 C -1.58 0.96, 0 1.95, 0 1.95 C 0 1.95, 1.58 0.96, 1.58 0.02 C 1.58 -0.92, 0.54 -1.22, 0 -0.32 Z" fill="#FF5BAA"/><ellipse cx="-1.08" cy="-0.81" rx="0.54" ry="0.72" fill="#FFFFFF" opacity="0.7"/></g></g></svg>