<svg xmlns="http://www.w3.org/2000/svg" viewBox="0 0 32 32" width="32" height="32"><defs><linearGradient id="dot_pt" x1="0%" y1="0%" x2="0%" y2="100%"><stop offset="0%" stop-color="#FFD8EC"/><stop offset="55%" stop-color="#FF7DB8"/><stop offset="100%" stop-color="#C8408F"/></linearGradient><radialGradient id="dot_chr" cx="30%" cy="30%" r="50%"><stop offset="0%" stop-color="#FFFFFF"/><stop offset="55%" stop-color="#E8E2EC"/><stop offset="100%" stop-color="#7A4A6A"/></radialGradient></defs><g><rect x="9.5" y="2" width="4" height="15" rx="2" fill="url(#dot_pt)" stroke="#5A2A4A" stroke-width="1"/><rect x="13.5" y="8" width="3.5" height="10" rx="1.75" fill="url(#dot_pt)" stroke="#5A2A4A" stroke-width="1"/><rect x="17" y="9" width="3" height="9" rx="1.5" fill="url(#dot_pt)" stroke="#5A2A4A" stroke-width="1"/><rect x="6" y="14" width="3.5" height="8" rx="1.75" fill="url(#dot_pt)" stroke="#5A2A4A" stroke-width="1"/><rect x="6" y="15" width="17.5" height="13" rx="3" fill="url(#dot_pt)" stroke="#5A2A4A" stroke-width="1"/></g><circle cx="11.5" cy="2.5" r="1.5" fill="#FFFFFF"/><circle cx="9.5"  cy="4.5" r="1"   fill="#FFFFFF" opacity="0.75"/><g transform="translate(28 7)"><g><animate attributeName="opacity" values="1;0.5;1" dur="0.9s" begin="0s" repeatCount="indefinite"/><animateTransform attributeName="transform" type="scale" values="1 1; 1.3 1.3; 1 1" dur="0.9s" begin="0s" repeatCount="indefinite" additive="sum"/><rect x="-0.32" y="-1.76" width="0.64" height="3.52" fill="#FFFFFF" stroke="#5A2A4A" stroke-width="0.24"/><rect x="-1.76" y="-0.32" width="3.52" height="0.64" fill="#FFFFFF" stroke="#5A2A4A" stroke-width="0.24"/></g></g><g transform="translate(28 23)"><g><animateTransform attributeName="transform" type="scale" values="1 1; 1.15 1.15; 1 1" dur="0.7s" begin="0.2s" repeatCount="indefinite" additive="sum"/><path d="M 0 -0.90 C -0.83 -2.25, -2.40 -1.80, -2.40 -0.38 C -2.40 1.05, 0 2.55, 0 2.55 C 0 2.55, 2.40 1.05, 2.40 -0.38 C 2.40 -1.80, 0.83 -2.25, 0 -0.90 Z" fill="url(#dot_chr)" stroke="#5A2A4A" stroke-width="0.38"/><path d="M 0 -0.27 C -0.45 -1.01, -1.32 -0.77, -1.32 0.02 C -1.32 0.80, 0 1.63, 0 1.63 C 0 1.63, 1.32 0.80, 1.32 0.02 C 1.32 -0.77, 0.45 -1.01, 0 -0.27 Z" fill="#FF5BAA"/><ellipse cx="-0.90" cy="-0.68" rx="0.45" ry="0.60" fill="#FFFFFF" opacity="0.7"/></g></g></svg>